<?xml version="1.0" standalone="no"?>
<!DOCTYPE svg PUBLIC "-//W3C//DTD SVG 20010904//EN"
 "http://www.w3.org/TR/2001/REC-SVG-20010904/DTD/svg10.dtd">
<svg version="1.0" xmlns="http://www.w3.org/2000/svg"
 width="1500.000000pt" height="1500.000000pt" viewBox="0 0 1500.000000 1500.000000"
 preserveAspectRatio="xMidYMid meet">
<metadata>
Created by potrace 1.14, written by Peter Selinger 2001-2017
</metadata>
<g transform="translate(0.000000,1500.000000) scale(0.100000,-0.100000)"
fill="#000000" stroke="none">
<path d="M7548 13433 c-10 -21 -8 -298 2 -373 18 -136 72 -207 137 -184 46 16
52 52 52 317 1 230 0 237 -19 237 -19 0 -20 -7 -19 -247 0 -137 -3 -256 -7
-266 -9 -25 -43 -18 -67 14 -25 35 -36 132 -37 330 0 107 -4 159 -12 167 -14
14 -25 15 -30 5z"/>
<path d="M6745 13384 c-9 -9 -13 -24 -10 -33 5 -13 39 -212 81 -468 4 -24 10
-33 24 -33 26 0 26 21 0 145 -25 122 -25 123 5 131 16 4 25 13 25 26 0 17 -5
20 -29 15 l-28 -6 -17 82 c-21 107 -20 115 6 119 13 2 24 11 26 21 3 13 -4 17
-32 17 -19 0 -42 -7 -51 -16z"/>
<path d="M8465 13348 c-2 -7 -18 -112 -35 -233 -17 -121 -36 -237 -41 -259 -6
-21 -7 -42 -2 -46 4 -5 28 -10 53 -12 36 -2 45 0 48 15 3 12 -5 19 -27 23 -17
4 -31 13 -31 20 0 7 13 95 30 194 43 261 47 310 26 310 -9 0 -19 -6 -21 -12z"/>
<path d="M5970 13232 c-40 -20 -53 -52 -21 -52 15 0 23 -10 31 -42 6 -24 35
-121 65 -216 31 -95 53 -177 50 -183 -4 -5 -13 -9 -21 -9 -8 0 -14 -7 -14 -15
0 -20 49 -20 96 0 40 16 41 38 3 43 -22 3 -30 21 -92 215 -37 117 -68 218 -67
225 0 6 7 12 16 12 17 0 16 31 -1 37 -5 1 -26 -5 -45 -15z"/>
<path d="M5200 12957 c-72 -44 -75 -74 -4 -52 17 5 23 -1 39 -37 10 -24 48
-108 85 -188 37 -80 74 -162 83 -182 17 -39 47 -52 47 -20 0 10 -30 78 -66
152 -36 74 -75 157 -85 183 -11 26 -28 65 -39 87 l-20 39 21 6 c20 7 23 35 4
42 -5 1 -35 -12 -65 -30z"/>
<path d="M9944 12863 c-6 -5 -15 -19 -19 -33 -4 -14 -52 -117 -106 -229 -55
-112 -99 -208 -99 -213 0 -13 63 -48 88 -48 33 0 28 30 -8 43 -16 6 -30 14
-30 18 0 4 21 51 47 104 45 93 47 96 75 90 23 -6 28 -3 28 14 0 11 -9 22 -19
26 -18 5 -16 12 22 95 42 90 42 90 75 84 24 -5 32 -3 32 9 0 28 -62 56 -86 40z"/>
<path d="M4500 12583 c0 -10 34 -65 74 -123 120 -169 196 -292 196 -317 0 -18
-6 -23 -26 -23 -59 0 -112 55 -259 270 -79 115 -95 132 -111 119 -10 -8 4 -36
63 -127 114 -177 173 -246 236 -276 34 -17 61 -24 73 -20 60 22 70 73 26 144
-15 25 -70 109 -122 186 -52 76 -100 148 -106 159 -15 27 -44 32 -44 8z"/>
<path d="M10555 12293 c-120 -256 -149 -322 -143 -328 13 -13 44 15 160 143
189 210 238 268 231 275 -17 17 -41 2 -81 -51 -23 -31 -83 -100 -132 -152
l-91 -95 34 70 c54 111 137 301 137 313 0 7 -6 12 -13 12 -7 0 -53 -84 -102
-187z"/>
<path d="M7734 12101 c-126 -32 -260 -163 -238 -234 3 -12 22 -38 40 -58 38
-39 37 -41 -29 -83 -35 -21 -41 -17 -27 18 5 15 10 45 10 67 0 76 -72 119
-210 126 -153 9 -299 -38 -392 -125 -85 -79 -97 -159 -40 -250 16 -26 32 -63
35 -82 3 -19 9 -44 13 -55 7 -17 3 -16 -24 7 -64 54 -151 50 -277 -10 -150
-72 -243 -191 -204 -261 8 -14 38 -38 67 -53 29 -14 62 -38 74 -53 25 -32 74
-55 120 -55 l33 -1 -27 -15 c-16 -8 -62 -23 -103 -33 -98 -25 -135 -52 -135
-98 0 -28 48 -84 107 -125 l44 -30 -54 -56 c-110 -117 -142 -198 -135 -351 7
-140 43 -200 66 -108 20 78 110 146 252 192 30 10 60 22 67 27 8 6 13 3 18
-11 8 -26 69 -79 100 -87 24 -6 25 -8 17 -63 -18 -139 -1 -208 89 -367 49 -86
93 -138 111 -132 7 3 29 39 50 80 32 64 56 92 142 172 114 105 132 135 148
234 7 43 19 76 33 92 12 14 32 40 44 58 13 19 31 32 44 32 11 0 30 9 42 20
l21 20 23 -24 24 -25 -73 -68 c-79 -75 -95 -99 -111 -172 -12 -55 -1 -158 27
-251 22 -76 103 -155 197 -193 111 -45 269 -63 203 -23 -80 47 -145 151 -153
244 -5 54 -2 63 56 175 34 66 61 131 61 145 0 39 -32 85 -85 123 l-47 34 80 5
c67 5 86 10 123 35 45 32 99 106 99 138 0 31 25 13 28 -20 2 -25 11 -35 39
-48 19 -9 45 -15 58 -13 20 4 28 -10 95 -171 41 -97 98 -246 128 -331 54 -158
145 -492 140 -517 -2 -9 -22 0 -63 28 -126 84 -178 101 -231 73 -62 -34 -69
-107 -18 -211 32 -67 101 -129 253 -228 l122 -80 -3 -137 c-3 -76 -7 -140 -10
-144 -4 -3 -30 1 -60 10 -29 9 -96 25 -148 35 -52 11 -126 27 -165 36 -89 21
-178 16 -206 -11 -54 -55 -18 -180 70 -235 53 -34 80 -42 225 -68 115 -21 216
-61 216 -85 0 -45 -146 -363 -217 -471 -118 -180 -285 -301 -483 -351 -106
-27 -482 -27 -650 0 -448 71 -675 164 -1119 462 -102 68 -190 124 -197 124
-16 0 -28 -108 -22 -208 4 -70 11 -90 76 -228 68 -142 80 -174 67 -174 -28 0
-173 37 -237 61 -43 16 -90 29 -102 29 -21 0 -22 3 -17 48 6 45 3 86 -13 177
l-7 40 60 39 c101 63 150 139 151 229 0 90 -41 139 -102 123 -13 -3 -65 -44
-117 -91 -52 -47 -98 -85 -102 -85 -8 0 -19 62 -19 110 0 19 -10 74 -22 123
l-22 89 45 131 c79 234 57 332 -92 407 -55 29 -78 26 -93 -11 -10 -25 -14 -28
-20 -14 -3 9 -6 31 -6 49 0 132 -109 247 -196 207 -61 -28 -70 -116 -80 -831
l-6 -435 34 -91 c45 -121 124 -258 287 -499 74 -110 170 -253 214 -317 93
-138 171 -215 322 -317 224 -152 418 -304 617 -485 181 -164 282 -309 308
-444 12 -60 9 -248 -5 -392 -4 -36 -3 -50 3 -40 17 27 35 225 30 336 -5 119
-25 183 -89 290 -96 160 -466 484 -854 749 -71 49 -155 114 -185 144 -49 49
-174 226 -394 556 -99 148 -204 334 -237 419 l-31 81 1 345 c1 190 6 410 11
490 5 80 10 155 10 168 0 15 6 22 20 22 30 0 52 43 57 114 4 46 1 72 -10 95
l-15 31 35 0 c46 0 106 -58 121 -115 34 -128 22 -345 -29 -517 -27 -94 -31
-123 -40 -338 -14 -326 -11 -389 29 -465 40 -78 97 -167 103 -161 2 2 2 -23 1
-56 -9 -147 51 -206 366 -359 198 -97 230 -116 279 -165 71 -73 82 -62 12 12
-49 51 -76 67 -269 161 -239 116 -300 156 -341 222 -37 58 -38 109 -4 319 40
245 44 264 63 285 28 32 162 128 170 123 15 -9 106 40 154 83 l48 43 11 -29
c17 -44 12 -117 -10 -160 -22 -44 -75 -96 -145 -143 -45 -30 -48 -35 -41 -64
16 -78 22 -145 15 -194 -3 -29 -4 -54 -2 -57 3 -3 18 -5 33 -5 15 0 74 -15
131 -34 57 -19 146 -42 198 -51 178 -30 256 -65 450 -206 69 -49 169 -122 223
-160 111 -81 424 -279 440 -279 19 0 -3 16 -178 125 -93 59 -258 171 -365 249
-275 201 -370 255 -480 272 -25 4 -44 13 -47 23 -3 9 -34 75 -68 146 -34 72
-68 148 -76 170 -15 44 -16 224 -2 250 7 12 32 -1 133 -71 69 -47 162 -108
207 -136 77 -47 85 -56 123 -125 119 -221 203 -306 540 -548 394 -282 567
-450 659 -640 47 -97 66 -166 86 -311 9 -60 28 -147 43 -194 25 -79 27 -96 26
-255 -1 -147 -5 -191 -32 -332 -35 -175 -37 -192 -23 -177 10 11 56 259 72
394 15 127 6 265 -25 365 -14 44 -32 127 -41 185 -43 285 -97 397 -284 593
-110 114 -224 208 -464 380 -107 77 -175 132 -185 152 -28 54 -141 309 -138
312 2 2 24 -5 49 -16 138 -59 363 -116 582 -147 178 -26 496 -26 611 -1 268
57 453 213 605 510 24 48 46 87 49 87 3 0 21 -51 40 -112 19 -62 58 -158 87
-213 126 -238 118 -213 199 -612 41 -202 91 -453 110 -558 25 -137 45 -214 71
-275 78 -188 89 -237 118 -545 19 -201 19 -259 -1 -365 -26 -146 -27 -156 -17
-145 11 11 39 149 48 240 7 69 -28 471 -51 585 -9 41 -38 128 -65 192 -39 95
-55 149 -80 285 -16 92 -52 274 -79 403 -27 129 -63 306 -80 394 -33 173 -44
204 -126 347 -61 108 -92 181 -133 320 l-29 97 39 98 c22 54 42 100 43 102 2
2 43 -18 92 -45 48 -26 135 -68 192 -93 l106 -45 28 -98 c34 -118 66 -190 148
-333 127 -222 163 -264 223 -264 l22 0 -3 -192 c-1 -106 -7 -237 -13 -291 -10
-94 -55 -276 -98 -401 -23 -66 -25 -76 -12 -76 8 0 77 217 106 335 25 102 35
222 35 406 0 101 5 200 12 228 11 50 10 57 -43 218 l-54 167 -81 86 c-45 47
-120 130 -166 185 -46 55 -120 128 -163 163 -205 163 -238 202 -233 274 l3 40
26 -21 c40 -31 119 -69 169 -80 35 -8 51 -7 74 4 17 9 34 11 40 6 159 -126
358 -280 416 -323 41 -30 87 -69 103 -85 15 -16 72 -119 126 -229 54 -109 138
-264 186 -343 66 -109 91 -160 103 -213 19 -82 32 -90 20 -12 -10 65 -24 95
-126 264 -42 69 -118 211 -170 315 -52 105 -103 202 -114 217 -11 15 -81 74
-156 130 -116 86 -260 198 -297 230 -16 14 66 -17 132 -50 138 -70 241 -165
583 -536 185 -201 234 -261 270 -329 14 -26 28 -47 32 -47 33 0 -68 144 -209
297 -76 82 -193 210 -260 284 -158 173 -284 281 -396 340 -22 11 -36 23 -33
26 10 10 -21 57 -66 100 -124 120 -443 377 -601 484 -173 118 -225 165 -261
237 -23 45 -31 123 -16 152 12 22 12 22 30 -17 32 -72 128 -132 212 -133 51 0
81 20 71 47 -5 12 -3 14 8 7 208 -126 340 -211 409 -261 47 -34 139 -99 205
-145 66 -45 146 -108 179 -138 124 -116 678 -858 760 -1017 18 -36 21 -109 6
-196 -17 -107 -29 -250 -40 -477 -6 -124 -20 -355 -31 -515 -18 -245 -20 -326
-13 -520 13 -350 9 -532 -14 -665 -11 -63 -18 -117 -16 -119 10 -11 17 16 34
126 29 191 33 285 19 448 -17 200 -15 430 6 710 9 127 18 231 19 232 1 1 30
-18 66 -42 138 -97 380 -203 625 -275 74 -21 246 -62 383 -90 229 -47 384 -91
457 -128 17 -8 72 -42 123 -75 110 -71 136 -71 30 1 -166 112 -268 149 -600
217 -276 57 -404 92 -583 157 -181 65 -301 123 -414 198 l-90 61 5 47 c2 26 9
146 14 267 5 121 20 300 32 398 21 171 21 181 5 250 -10 40 -17 92 -17 117 -1
65 -33 135 -149 315 -63 99 -150 258 -227 415 -69 140 -141 278 -161 307 -19
29 -71 83 -116 120 -45 37 -170 153 -277 258 -107 105 -223 213 -257 238 -122
93 -207 147 -230 147 -76 0 -114 -68 -94 -168 15 -76 39 -111 161 -237 159
-166 159 -166 -15 -60 -88 53 -161 98 -162 99 -2 2 -25 92 -53 202 -49 193
-50 203 -50 344 0 156 8 203 46 260 32 48 102 83 87 44 -5 -13 -2 -15 13 -10
11 3 40 -5 68 -19 57 -29 116 -32 169 -10 45 19 93 19 100 2 3 -7 3 -26 0 -43
l-4 -29 20 24 c28 32 27 82 -2 109 -13 12 -46 29 -74 37 -28 8 -56 22 -63 30
-20 24 -51 18 -104 -20 -39 -27 -59 -35 -93 -35 -25 0 -54 -5 -66 -11 -12 -6
-3 7 20 28 76 69 97 85 150 111 51 25 55 26 139 15 120 -15 143 -7 205 72 49
62 76 79 139 87 14 2 25 8 25 13 0 17 -196 17 -269 0 -88 -20 -178 -66 -237
-122 -57 -53 -64 -49 -14 10 19 22 35 49 35 59 0 30 -27 86 -75 154 -25 36
-45 66 -45 68 0 10 103 46 131 46 31 0 32 1 26 39 -8 62 -55 155 -100 199 -35
34 -150 102 -172 102 -4 0 -31 7 -60 15 l-53 16 5 78 c6 79 -7 161 -32 211
-12 22 -9 28 26 70 50 59 59 85 66 196 l6 92 -64 -3 c-76 -3 -105 -13 -152
-55 l-35 -31 -12 35 c-26 79 -81 112 -100 60 -7 -18 -15 -24 -26 -20 -9 3 -17
6 -19 6 -2 0 -17 24 -34 54 -39 67 -96 126 -144 149 -44 21 -119 29 -163 18z
m151 -30 c22 -10 54 -33 70 -51 l30 -33 -25 6 c-14 4 -44 7 -68 7 -37 0 -45 4
-60 30 -9 16 -21 30 -26 30 -5 0 -26 -16 -47 -35 -29 -26 -48 -35 -73 -35 -69
0 -136 -43 -136 -88 0 -13 11 -37 25 -53 23 -28 25 -64 2 -56 -6 2 -24 20 -41
40 -28 35 -29 39 -17 76 15 51 106 134 176 161 64 24 139 25 190 1z m-65 -55
c14 -27 37 -36 91 -36 72 0 94 -16 135 -93 33 -63 38 -82 42 -157 8 -162 -55
-255 -252 -375 -101 -61 -139 -99 -151 -147 l-7 -28 -19 24 c-11 14 -28 28
-39 31 -16 5 -20 15 -20 54 0 69 -21 129 -84 240 -72 127 -72 142 -1 182 88
49 117 106 75 144 -14 13 -20 29 -18 49 4 37 46 62 122 72 38 4 56 13 75 35
32 35 34 35 51 5z m-414 -119 c17 -8 37 -24 45 -33 13 -16 12 -16 -14 1 -17
11 -54 20 -95 23 -75 5 -110 -6 -177 -57 l-40 -31 -59 16 c-64 17 -103 12
-155 -18 -24 -13 -31 -15 -22 -4 25 30 112 79 184 102 63 21 87 24 187 21 81
-2 124 -8 146 -20z m769 -14 c27 -26 37 -64 35 -128 -1 -33 -2 -64 -1 -70 2
-19 21 20 21 44 0 52 62 116 130 136 19 5 14 0 -17 -24 -54 -39 -86 -100 -81
-152 3 -38 2 -39 -27 -39 -42 0 -80 -30 -161 -130 -49 -59 -96 -103 -156 -145
-112 -78 -133 -98 -179 -170 l-39 -60 0 37 c0 49 56 109 160 168 97 56 183
138 217 208 34 70 43 187 20 257 -16 45 -16 46 3 40 15 -5 22 0 30 19 11 30
22 32 45 9z m-755 -31 c48 -24 59 -59 36 -120 -41 -105 -41 -116 -8 -179 24
-46 30 -74 34 -136 3 -75 3 -77 -14 -55 -9 13 -18 38 -20 56 -4 44 -19 43 -42
-2 -20 -41 -36 -34 -36 16 0 15 -4 29 -9 32 -15 10 -35 -24 -34 -59 1 -27 -2
-32 -18 -28 -24 7 -24 -2 1 -34 23 -30 26 -47 7 -40 -8 3 -20 1 -28 -3 -11 -7
-10 -12 4 -28 21 -23 23 -72 3 -72 -8 0 -47 15 -87 34 -41 19 -105 48 -144 66
-38 17 -83 43 -98 58 -36 34 -67 93 -67 129 0 15 -16 53 -35 83 -19 30 -35 63
-35 75 1 39 53 119 95 143 41 23 61 24 172 6 37 -6 46 -3 81 25 22 17 50 35
63 40 41 16 141 13 179 -7z m1037 -65 c-7 -99 -14 -120 -61 -176 -29 -34 -37
-40 -42 -26 -4 9 -21 26 -39 38 l-32 22 21 65 c19 59 26 68 86 111 36 26 67
48 69 48 2 1 1 -36 -2 -82z m-82 44 c-17 -10 -43 -33 -58 -50 -15 -18 -27 -28
-27 -23 0 14 87 92 102 92 7 0 -1 -8 -17 -19z m-100 -205 c72 -30 125 -144
125 -269 0 -93 -21 -158 -81 -253 -27 -43 -57 -102 -65 -131 -12 -41 -25 -61
-65 -94 -45 -38 -52 -49 -76 -130 -32 -103 -52 -119 -76 -59 -13 34 -21 40
-73 57 -46 14 -71 30 -115 75 -64 64 -106 88 -197 113 -64 18 -77 37 -30 43
44 5 112 -35 207 -124 66 -61 99 -84 114 -82 15 2 35 27 66 83 l44 79 -22 62
c-21 58 -21 65 -7 92 10 20 31 36 61 47 62 24 86 8 100 -65 12 -66 30 -74 51
-24 21 50 13 92 -27 150 l-32 46 22 52 c11 28 21 59 21 69 0 9 -22 33 -49 52
-51 37 -66 66 -55 113 8 34 50 80 89 98 37 16 30 16 70 0z m-745 -160 c37 -68
44 -89 48 -152 5 -81 -4 -92 -36 -46 -27 37 -42 96 -42 167 0 48 -7 71 -30
114 -17 30 -30 61 -30 69 0 9 10 -4 23 -29 13 -24 43 -79 67 -123z m574 -8 c3
-10 26 -32 51 -50 51 -36 53 -47 25 -111 -22 -50 -20 -62 22 -124 27 -40 35
-83 22 -118 -5 -13 -8 -14 -15 -3 -5 7 -9 23 -9 34 0 12 -9 33 -21 48 -39 50
-145 23 -173 -46 -12 -28 -11 -39 7 -91 l21 -58 -41 -77 c-23 -42 -46 -78 -51
-80 -5 -1 -51 37 -103 84 -87 81 -171 134 -210 134 -9 0 -27 -8 -40 -19 -20
-16 -21 -21 -10 -34 7 -9 27 -19 44 -23 85 -18 143 -49 209 -110 37 -35 73
-64 79 -64 7 0 0 -11 -15 -25 -23 -21 -26 -32 -26 -86 0 -109 -57 -163 -173
-164 l-58 0 -3 50 c-2 28 -15 83 -29 122 -21 61 -23 80 -15 115 12 55 3 103
-28 150 -13 21 -24 42 -24 47 0 6 25 26 56 46 42 27 60 47 75 80 11 25 24 45
29 45 5 0 32 33 59 73 37 54 68 85 127 127 43 30 106 82 139 115 61 61 63 62
79 13z m-1252 -35 c12 -10 44 -41 73 -70 70 -69 188 -145 285 -182 44 -17 84
-31 90 -31 5 0 10 -15 10 -34 0 -19 3 -42 7 -51 5 -15 3 -16 -16 -6 -13 7 -61
11 -119 10 -53 0 -125 4 -160 11 -89 18 -189 9 -255 -24 -39 -19 -70 -26 -111
-26 -53 0 -60 3 -103 43 -25 23 -69 53 -97 67 -44 22 -51 29 -54 58 -4 42 34
110 86 151 58 45 175 102 229 110 58 8 107 -1 135 -26z m539 -73 c5 0 12 0 17
0 4 1 6 10 4 20 -2 11 1 28 7 37 10 17 10 16 11 -3 0 -11 11 -35 25 -54 32
-43 33 -60 1 -23 -19 22 -27 25 -37 16 -9 -9 -9 -22 -1 -55 6 -23 9 -44 7 -46
-2 -2 -17 4 -34 14 -33 20 -48 54 -24 54 14 0 14 3 0 24 -9 12 -19 41 -22 62
l-7 39 22 -42 c12 -24 26 -43 31 -43z m64 -50 c17 -32 35 -40 35 -14 0 8 4 13
9 10 12 -8 0 -54 -24 -92 l-19 -31 -32 19 c-36 21 -62 48 -47 48 6 0 22 -10
37 -21 15 -12 30 -18 33 -15 4 3 1 29 -5 57 -18 78 -14 91 13 39z m-199 -111
c19 -11 34 -22 34 -24 0 -15 -204 79 -250 115 -28 23 162 -57 216 -91z m69 95
c9 -4 23 -23 31 -43 16 -38 98 -106 115 -96 5 4 9 16 9 27 0 11 12 31 26 44
20 19 29 22 44 14 10 -5 30 -10 43 -10 71 0 99 -101 43 -159 -15 -16 -49 -42
-75 -58 -37 -23 -57 -28 -108 -28 -54 0 -66 4 -89 26 -21 21 -28 40 -33 93 -5
51 -4 66 6 66 15 0 17 16 3 25 -5 3 -10 24 -10 45 0 27 -6 42 -17 49 -20 12
-13 14 12 5z m1182 -89 c93 -31 154 -66 189 -108 35 -41 84 -145 84 -177 0
-21 -5 -25 -34 -27 -18 -1 -52 -11 -75 -23 -38 -19 -43 -19 -64 -5 -30 21 -40
19 -33 -9 5 -22 2 -25 -45 -35 -27 -6 -66 -11 -85 -11 -33 0 -104 23 -104 34
0 3 9 24 21 46 25 47 29 134 10 201 -11 39 -10 49 9 92 12 26 28 47 36 47 9 0
50 -11 91 -25z m-153 -122 c16 -79 17 -103 7 -140 -6 -22 -28 -62 -48 -88 -34
-45 -38 -57 -48 -151 -15 -126 -52 -197 -69 -130 -6 26 -53 80 -75 87 -12 4
-11 17 4 80 16 67 23 79 76 132 41 41 62 70 70 100 12 45 59 137 71 137 3 0 9
-12 12 -27z m-1348 -20 c-10 -10 -236 -31 -230 -21 10 15 71 26 153 27 46 1
81 -2 77 -6z m157 -38 c89 -29 129 -31 147 -10 10 12 16 10 42 -15 26 -27 36
-30 92 -30 35 0 65 -3 69 -6 3 -3 1 -16 -5 -28 -8 -18 -3 -43 21 -115 18 -53
31 -113 31 -141 0 -42 20 -123 45 -182 5 -13 3 -18 -8 -18 -8 0 -27 -10 -42
-22 -26 -20 -28 -21 -79 -5 -69 22 -100 21 -165 -3 -48 -19 -91 -19 -91 -2 0
26 72 218 88 235 66 73 117 187 91 203 -20 12 -64 -50 -99 -139 -17 -45 -46
-105 -64 -132 -41 -62 -49 -88 -47 -141 1 -51 -25 -88 -75 -104 -45 -15 -73
-8 -136 35 -41 28 -60 35 -99 35 -54 0 -66 12 -55 55 12 46 79 106 228 206
192 129 321 249 266 249 -16 0 -98 -65 -207 -163 -52 -47 -118 -97 -148 -111
-51 -26 -54 -26 -85 -10 -18 9 -56 34 -84 55 -67 51 -113 69 -177 69 -93 0
-167 38 -167 87 0 30 31 49 115 68 39 9 90 28 114 42 37 22 68 28 220 43 97
10 178 18 181 19 3 0 40 -10 83 -24z m134 9 c7 -20 -30 -21 -92 -3 l-60 18 74
-2 c45 -1 76 -7 78 -13z m265 -145 c19 -36 24 -104 9 -113 -8 -6 -51 111 -51
140 0 25 24 11 42 -27z m-282 6 c-32 -34 -149 -124 -125 -96 24 28 133 121
142 121 4 0 -4 -11 -17 -25z m106 -50 c-7 -29 -66 -128 -72 -122 -9 9 61 146
75 147 2 0 0 -11 -3 -25z m958 -24 c3 -5 26 -14 51 -20 41 -10 85 -8 189 12
18 3 19 -60 2 -111 -22 -63 -20 -105 8 -160 44 -89 42 -101 -25 -167 -34 -34
-70 -82 -86 -114 -23 -50 -27 -71 -31 -190 l-5 -134 -47 134 c-26 74 -75 198
-108 276 -77 178 -78 184 -53 207 27 24 38 64 46 161 4 44 11 88 16 98 10 18
34 23 43 8z m336 -82 c63 -95 73 -135 43 -160 -9 -8 -24 -27 -34 -42 l-17 -29
-17 53 c-12 36 -16 68 -12 107 4 41 1 67 -14 104 -34 87 -23 80 51 -33z
m-2061 32 c87 -8 93 -10 153 -55 35 -26 72 -53 83 -61 18 -13 16 -14 -33 -15
-29 0 -78 9 -109 20 -61 21 -170 83 -218 124 l-30 26 32 -15 c17 -9 72 -19
122 -24z m1378 -46 c32 -22 47 -87 32 -132 -13 -41 -71 -108 -108 -127 -37
-19 -255 -30 -269 -13 -8 9 2 12 46 12 42 1 69 7 101 25 66 37 85 68 89 151 4
57 8 72 25 84 27 19 57 19 84 0z m628 -47 c-5 -46 -2 -75 9 -107 9 -24 16 -62
15 -85 -1 -39 -1 -39 -8 -11 -4 17 -18 50 -30 73 -26 51 -29 84 -11 146 18 67
33 57 25 -16z m-1891 -43 c39 -11 77 -16 110 -12 l51 5 -57 -58 c-32 -33 -58
-67 -58 -77 0 -14 -5 -12 -28 10 -37 36 -79 47 -135 36 -96 -17 -173 -76 -201
-151 l-16 -43 4 56 c6 78 40 142 119 225 l68 72 42 -23 c23 -13 69 -31 101
-40z m885 -95 c0 -22 -1 -21 -15 10 -8 19 -17 55 -19 80 l-5 45 20 -55 c10
-30 19 -66 19 -80z m1541 119 c-33 -13 -65 -44 -102 -97 -41 -59 -64 -66 -174
-52 -85 11 -94 11 -140 -9 l-49 -21 45 41 c108 100 231 145 395 147 43 1 46
-1 25 -9z m-1015 -43 c18 -19 35 -44 38 -55 4 -17 1 -21 -22 -21 -41 0 -72 26
-65 55 3 12 1 26 -5 30 -13 7 -5 25 11 25 6 0 25 -15 43 -34z m-915 -83 c-13
-40 -30 -66 -30 -45 0 18 32 93 37 88 3 -3 0 -22 -7 -43z m-493 -38 c26 -29
29 -57 11 -72 -7 -6 -38 -18 -68 -28 -129 -42 -221 -109 -241 -176 -19 -62
-32 -35 -26 52 9 117 42 180 112 217 93 48 175 51 212 7z m72 -58 c4 -4 32 -9
62 -11 42 -3 65 -11 108 -40 29 -20 61 -36 71 -36 37 0 29 -19 -12 -31 -116
-31 -250 42 -247 135 1 21 3 25 6 11 3 -11 8 -24 12 -28z m669 -3 c17 -7 32
-17 32 -22 0 -5 -13 -27 -30 -50 -22 -30 -41 -44 -71 -52 -37 -10 -47 -9 -91
14 -29 15 -66 26 -89 26 -45 0 -59 18 -39 54 10 20 18 23 53 19 27 -3 60 3 92
16 52 21 82 20 143 -5z m117 16 c-3 -5 -11 -10 -16 -10 -6 0 -7 5 -4 10 3 6
11 10 16 10 6 0 7 -4 4 -10z m170 -60 c62 -42 95 -86 95 -124 0 -20 -20 -67
-57 -131 -54 -93 -58 -104 -58 -165 0 -80 36 -164 98 -227 49 -51 40 -53 -71
-18 -107 34 -178 85 -214 155 -55 108 -38 151 95 237 84 54 101 70 118 108 26
58 15 103 -38 157 -44 45 -29 50 32 8z m1058 0 c14 -12 47 -27 72 -34 51 -16
75 -32 75 -51 0 -10 -6 -11 -28 -3 -22 9 -41 7 -93 -10 -79 -27 -133 -17 -209
38 -13 10 -13 11 0 9 39 -4 60 4 101 36 24 19 47 35 50 35 4 0 18 -9 32 -20z
m-1083 -40 c56 -79 30 -135 -103 -223 -48 -32 -96 -71 -106 -88 l-19 -30 -7
56 c-14 118 9 174 108 267 79 72 87 74 127 18z m-570 -1 c0 -7 -21 -44 -47
-83 -76 -116 -87 -152 -88 -294 0 -142 0 -142 -74 8 -44 91 -46 98 -45 180 1
131 3 136 68 136 41 0 68 7 112 31 67 35 74 37 74 22z m125 -34 c28 -17 55
-24 88 -25 l49 0 -7 -52 c-11 -87 -41 -133 -141 -220 -86 -75 -138 -142 -164
-213 l-12 -30 -19 23 c-31 39 -42 99 -37 207 4 88 9 108 37 165 18 36 48 86
66 112 30 41 46 51 90 57 6 0 28 -10 50 -24z m1403 -618 c47 -50 106 -79 154
-75 36 2 44 7 46 26 l3 22 26 -19 c13 -11 118 -110 231 -219 114 -110 242
-229 284 -266 43 -37 91 -86 107 -109 16 -23 88 -160 160 -305 73 -147 173
-330 228 -415 53 -83 107 -175 120 -203 23 -52 44 -188 26 -169 -6 6 -43 60
-84 120 -88 130 -384 528 -527 706 -106 133 -156 177 -337 300 -84 57 -148
113 -277 244 -92 94 -181 189 -198 211 -57 79 -77 185 -44 233 l17 24 19 -39
c10 -21 31 -51 46 -67z m51 72 c35 -17 81 -49 104 -70 37 -36 39 -41 25 -55
-14 -14 -21 -14 -54 -4 -53 17 -121 67 -144 106 -40 63 -23 69 69 23z m-351
-216 c55 -27 122 -84 122 -103 0 -21 -39 -30 -87 -20 -92 21 -173 88 -173 144
0 16 6 18 41 13 22 -3 66 -18 97 -34z m-3322 -308 c11 -44 -1 -144 -19 -162
-9 -9 -20 -14 -23 -10 -10 10 -5 144 6 173 12 31 28 31 36 -1z m261 -227 c-7
-54 -70 -202 -75 -176 -6 30 26 188 43 214 24 37 38 20 32 -38z m107 -17 c74
-68 75 -166 1 -356 -31 -80 -34 -138 -12 -212 8 -28 19 -93 23 -143 l7 -92
-50 -47 c-56 -51 -55 -47 -89 -276 -27 -188 -22 -183 -82 -79 -29 49 -58 106
-64 127 -9 28 -9 114 -1 340 10 278 13 308 36 379 14 42 28 95 32 117 4 23 11
41 16 41 15 0 78 140 91 202 l12 58 25 -16 c15 -9 39 -28 55 -43z m3272 -9
c327 -272 447 -383 430 -399 -6 -6 -113 35 -166 64 -30 16 -84 51 -120 77
-123 91 -173 105 -215 61 -13 -15 -26 -22 -29 -16 -8 12 5 281 13 281 3 0 42
-31 87 -68z m-494 -130 c38 -9 69 -21 69 -27 6 -39 -159 -45 -209 -8 -15 11
-28 28 -30 37 -3 13 6 16 50 16 29 0 83 -8 120 -18z m-138 -56 c75 -36 184
-29 224 14 19 20 19 20 123 -1 57 -11 123 -29 147 -39 42 -19 42 -19 42 -72 0
-84 27 -118 214 -268 61 -50 126 -108 145 -131 l35 -42 -45 26 c-24 14 -80 40
-124 57 -44 17 -147 69 -230 115 -164 91 -202 105 -348 130 -114 20 -188 54
-230 106 -34 43 -46 109 -26 145 l13 25 13 -24 c7 -13 28 -32 47 -41z m674
-25 c20 -10 66 -40 101 -66 49 -36 61 -49 50 -56 -33 -22 -161 22 -229 79 -30
26 -33 32 -21 46 18 21 53 20 99 -3z m-3025 -425 c-16 -26 -112 -96 -133 -96
-19 0 0 20 62 66 61 45 85 55 71 30z m3318 -176 c28 -41 93 -115 144 -165 l92
-90 42 -125 c22 -69 41 -137 41 -153 0 -24 -4 -27 -34 -27 -49 0 -78 28 -150
148 -131 219 -196 359 -221 480 -7 32 -6 33 14 20 12 -7 45 -47 72 -88z m150
-124 c41 -43 64 -73 51 -67 -35 19 -135 122 -161 166 l-23 40 29 -30 c16 -16
63 -65 104 -109z m-2605 -395 c65 -146 70 -159 46 -142 -41 30 -142 130 -185
182 -40 50 -137 206 -137 221 0 5 46 -15 102 -45 l103 -55 71 -161z"/>
<path d="M3740 12018 c0 -13 13 -50 29 -83 45 -95 221 -380 237 -383 20 -5 17
12 -11 68 -14 27 -25 51 -25 54 0 2 16 14 35 26 l36 22 38 -44 c38 -41 40 -42
57 -26 17 17 13 22 -87 120 -154 151 -284 268 -297 268 -7 0 -12 -10 -12 -22z
m270 -268 c0 -9 -45 -40 -59 -40 -10 0 -84 117 -121 190 -22 43 -21 42 79 -49
55 -52 101 -97 101 -101z"/>
<path d="M11327 11884 c-12 -15 -93 -102 -180 -195 -173 -186 -174 -187 -105
-229 50 -30 66 -8 23 32 l-24 23 77 84 c73 79 79 83 100 70 17 -11 24 -11 34
-1 11 11 10 16 -4 26 -24 18 -23 22 15 59 18 18 47 49 65 71 31 35 34 37 51
22 24 -22 41 -20 41 3 0 19 -43 61 -62 61 -5 0 -19 -12 -31 -26z"/>
<path d="M3120 11400 c-25 -35 -20 -48 30 -82 19 -13 108 -86 198 -161 90 -75
167 -137 172 -137 14 0 60 65 60 83 0 25 -26 20 -47 -9 l-19 -26 -80 67 c-43
37 -83 71 -87 75 -5 4 -3 17 4 29 11 17 11 23 1 33 -11 11 -16 9 -31 -10 -16
-22 -18 -22 -31 -7 -8 9 -41 38 -75 63 -33 25 -62 47 -64 49 -2 1 3 11 12 21
23 25 21 42 -2 42 -11 0 -29 -13 -41 -30z"/>
<path d="M11708 11147 c-126 -99 -207 -169 -208 -179 0 -10 5 -18 11 -18 9 0
125 86 213 159 18 15 18 15 8 -5 -17 -32 -126 -177 -145 -193 -9 -7 -17 -22
-17 -33 0 -39 34 -13 89 68 88 128 110 150 173 174 66 25 115 70 124 116 6 35
-9 75 -29 73 -7 -1 -105 -74 -219 -162z m222 108 c0 -28 -94 -105 -129 -105
-22 0 -7 18 54 64 57 43 75 53 75 41z"/>
<path d="M2639 10711 c-16 -16 -27 -36 -24 -44 3 -7 54 -42 113 -77 59 -36
159 -97 223 -137 64 -40 119 -73 123 -73 11 0 36 59 36 85 0 87 -106 164 -209
152 l-46 -5 -27 47 c-45 82 -134 106 -189 52z m144 -53 c20 -22 37 -49 37 -59
0 -15 -10 -12 -69 22 -88 51 -101 66 -70 78 35 14 60 4 102 -41z m195 -84 c58
-24 92 -62 92 -102 0 -28 -3 -33 -17 -28 -13 6 -179 102 -192 112 -2 2 2 10 9
19 16 19 61 19 108 -1z"/>
<path d="M12271 10558 c-103 -99 -173 -151 -267 -202 -60 -32 -76 -52 -51 -62
9 -3 68 26 141 71 76 47 164 90 222 111 111 40 134 51 134 65 0 28 -32 20
-170 -39 -8 -3 16 24 54 60 62 59 76 88 44 88 -5 0 -54 -42 -107 -92z"/>
<path d="M7320 9452 c0 -4 13 -15 29 -25 54 -32 130 -108 141 -141 7 -23 8
-41 0 -61 -12 -31 -4 -48 10 -25 10 16 14 42 10 75 -4 37 -38 80 -108 133 -68
52 -82 59 -82 44z"/>
<path d="M2006 9288 c-17 -52 -15 -67 6 -82 12 -9 32 -16 43 -16 12 0 119 -27
239 -61 148 -41 222 -57 229 -50 13 13 22 111 10 111 -15 0 -33 -23 -33 -42 0
-30 -19 -30 -125 0 -97 27 -100 29 -97 55 2 21 -2 27 -16 27 -12 0 -22 -9 -25
-21 -3 -11 -12 -19 -19 -17 -7 2 -50 12 -96 23 -82 20 -83 20 -80 50 2 21 -2
30 -15 33 -9 2 -19 -2 -21 -10z"/>
<path d="M12949 9165 c-14 -7 -63 -23 -110 -35 -46 -12 -127 -35 -179 -51 -52
-17 -114 -31 -137 -32 -48 -2 -58 -15 -41 -53 16 -34 71 -61 152 -74 115 -18
312 39 365 106 23 29 28 85 11 128 -11 29 -23 31 -61 11z m27 -49 c8 -20 -20
-70 -52 -95 -71 -56 -275 -83 -356 -48 -21 9 -38 20 -38 25 0 5 24 14 53 21
28 6 124 34 212 61 88 27 164 49 168 49 4 1 10 -5 13 -13z"/>
<path d="M7344 9142 c-40 -29 -44 -36 -88 -135 -29 -67 -63 -87 -146 -87 -52
0 -96 -16 -119 -44 -19 -22 -1 -20 29 4 16 13 41 20 70 20 112 1 158 30 191
119 11 31 28 65 37 76 42 51 110 75 97 35 -3 -11 -2 -20 4 -20 12 0 24 37 16
50 -11 18 -52 10 -91 -18z"/>
<path d="M7949 9014 c-22 -27 -99 -60 -228 -98 -190 -56 -236 -85 -280 -173
-12 -24 -23 -43 -25 -43 -30 0 -117 -25 -143 -41 -45 -28 -100 -102 -157 -214
-58 -110 -88 -143 -138 -152 -38 -6 -56 -18 -44 -30 3 -4 23 -1 43 5 20 6 40
8 43 3 3 -5 47 -14 97 -21 108 -15 198 -4 322 37 97 32 139 54 229 116 131 90
194 181 227 327 9 41 25 100 36 131 25 73 24 75 -11 45 -17 -14 -84 -53 -149
-86 -65 -34 -154 -90 -197 -125 -44 -35 -135 -109 -204 -165 -137 -111 -278
-210 -298 -210 -8 0 -4 12 11 33 14 17 46 73 71 124 62 121 120 176 202 194
72 15 79 20 110 81 34 67 86 97 246 143 139 39 202 67 253 109 21 18 25 25 14
26 -9 0 -22 -7 -30 -16z m-45 -171 c-54 -229 -64 -252 -149 -342 -139 -150
-396 -252 -595 -237 -137 10 -141 13 -62 51 74 37 189 122 406 301 107 89 175
136 267 185 68 37 127 67 132 68 4 1 4 -11 1 -26z"/>
<path d="M6756 8998 c40 -130 83 -193 140 -204 37 -7 90 1 114 16 26 16 5 19
-37 5 -43 -15 -90 -8 -120 16 -19 16 -57 92 -73 147 -7 23 -17 42 -22 42 -5 0
-6 -10 -2 -22z"/>
<path d="M1880 8473 c-32 -16 -62 -65 -48 -78 4 -4 512 -75 539 -75 5 0 9 8 9
19 0 16 -13 20 -102 31 -57 7 -121 16 -143 19 l-40 7 70 13 c39 7 106 16 150
20 62 5 80 10 83 22 5 26 -19 28 -114 8 -119 -25 -203 -24 -251 1 -58 29 -112
34 -153 13z m101 -34 c19 -7 41 -18 49 -25 12 -12 12 -14 -3 -14 -38 0 -157
23 -157 31 0 18 65 23 111 8z"/>
<path d="M12622 8254 c2 -15 17 -21 63 -30 l60 -10 -2 -39 c-2 -21 -5 -41 -8
-44 -4 -3 -29 -8 -57 -11 -52 -5 -64 -15 -49 -38 6 -11 39 -8 176 13 144 22
255 42 343 61 12 2 22 11 22 19 0 29 -79 46 -325 70 -88 9 -175 18 -193 22
-29 5 -33 3 -30 -13z m318 -55 c55 -7 100 -15 100 -18 0 -4 -48 -15 -107 -24
-60 -10 -118 -20 -130 -23 -21 -6 -23 -3 -23 35 0 48 -2 48 160 30z"/>
<path d="M1953 7680 c-126 -18 -189 -66 -167 -128 16 -45 64 -55 249 -49 134
4 171 8 229 28 78 27 119 66 100 96 -30 48 -55 55 -205 58 -79 2 -172 0 -206
-5z m276 -29 c84 -10 112 -28 86 -54 -54 -54 -369 -86 -470 -47 -59 23 -7 73
93 89 128 20 192 23 291 12z"/>
<path d="M13025 7413 c-35 -10 -103 -15 -233 -15 -161 -1 -182 -3 -180 -17 3
-13 32 -18 173 -27 110 -7 197 -19 245 -32 94 -26 132 -30 137 -15 6 18 -48
42 -111 49 -61 7 -66 24 -8 25 52 1 125 22 130 37 5 17 -89 14 -153 -5z"/>
<path d="M4741 7181 c-25 -48 -57 -75 -162 -136 -111 -65 -189 -144 -212 -214
-22 -69 -21 -99 3 -139 11 -18 20 -34 20 -37 0 -7 -163 -102 -250 -145 -431
-214 -625 -526 -619 -995 l2 -100 8 95 c19 212 30 301 50 370 95 343 418 607
889 729 103 26 489 88 660 106 167 17 498 98 515 125 9 14 0 13 -74 -14 -93
-34 -273 -72 -426 -91 -137 -17 -506 -70 -565 -81 l-35 -7 41 30 c120 90 150
167 188 491 8 63 -5 68 -33 13z m4 -98 c-24 -238 -84 -357 -209 -414 -42 -19
-106 -26 -106 -11 0 4 18 26 41 47 50 49 102 122 97 137 -2 6 -15 -6 -28 -28
-29 -46 -96 -121 -122 -135 -14 -7 -20 -4 -33 20 -21 42 -19 88 10 148 31 69
86 118 214 195 57 35 110 73 118 86 9 12 18 22 20 22 3 0 2 -30 -2 -67z m-323
-468 c-98 -29 -101 -29 -57 3 35 25 44 28 69 19 l30 -10 -42 -12z"/>
<path d="M2126 6830 c-142 -33 -261 -62 -264 -65 -3 -3 0 -11 6 -17 8 -8 66
-11 192 -9 99 1 180 0 180 -2 0 -3 -37 -20 -82 -38 -105 -41 -234 -105 -243
-120 -19 -31 20 -29 211 10 110 22 219 43 244 47 55 8 80 20 80 39 0 19 0 19
-138 -11 -184 -40 -252 -52 -247 -44 8 12 166 78 220 91 28 6 56 17 64 24 26
25 1 35 -88 35 -170 0 -170 10 1 45 85 17 160 35 167 39 16 10 -5 36 -28 35
-9 0 -132 -27 -275 -59z"/>
<path d="M2662 5380 c-97 -59 -67 -202 45 -217 131 -17 186 165 67 222 -43 20
-73 19 -112 -5z"/>
<path d="M12565 5258 c-60 -47 -66 -125 -13 -178 38 -38 85 -47 132 -25 76 36
92 131 32 191 -29 29 -41 34 -79 34 -30 0 -53 -7 -72 -22z"/>
<path d="M11314 5122 c-76 -100 -80 -106 -56 -91 16 10 27 11 40 3 15 -10 279
-552 270 -558 -1 -1 -144 14 -317 34 -285 34 -316 39 -332 59 -17 21 -18 20
-103 -89 -47 -61 -86 -112 -86 -114 0 -3 15 -2 33 0 39 7 726 -63 741 -75 6
-4 85 -66 176 -136 91 -71 170 -132 176 -137 8 -6 30 15 68 63 31 40 56 75 56
78 0 3 -88 74 -194 156 l-194 150 -132 299 c-118 269 -132 304 -127 343 2 24
4 43 3 42 0 0 -10 -12 -22 -27z"/>
<path d="M3320 5069 c-74 -27 -74 -28 -34 -28 76 -2 140 -45 233 -160 60 -73
82 -107 75 -116 -5 -7 -191 -158 -414 -336 -223 -177 -404 -327 -402 -331 4
-14 105 -138 112 -138 3 0 192 149 419 330 228 182 415 330 417 330 1 0 41
-49 88 -109 94 -119 121 -185 110 -265 l-6 -41 32 55 c18 30 38 62 45 70 11
13 -33 73 -286 390 -164 206 -302 375 -306 376 -5 1 -42 -11 -83 -27z"/>
<path d="M4118 3517 c-170 -254 -308 -465 -308 -468 0 -12 142 -100 154 -96 6
3 79 106 161 231 83 124 153 226 158 226 12 0 387 -253 387 -262 0 -4 -67
-109 -150 -233 -82 -124 -150 -229 -150 -235 0 -5 34 -32 75 -60 l75 -50 311
466 c171 256 309 467 307 469 -26 20 -145 95 -153 95 -5 0 -73 -95 -149 -211
-77 -115 -143 -212 -148 -215 -4 -3 -95 54 -203 126 l-195 130 141 211 c77
116 142 216 145 223 4 11 -24 33 -126 99 l-25 16 -307 -462z"/>
<path d="M9950 3749 c-36 -28 -66 -52 -68 -53 -3 -4 629 -861 652 -884 11 -12
60 20 287 188 151 112 278 206 282 210 5 4 -6 36 -24 71 l-33 64 -6 -50 c-7
-58 -27 -100 -67 -136 -38 -35 -225 -175 -266 -199 l-34 -20 -318 430 c-175
237 -324 430 -329 429 -6 0 -40 -23 -76 -50z"/>
<path d="M9010 3269 c-250 -27 -449 -251 -484 -546 -24 -195 101 -407 300
-510 102 -53 181 -73 288 -73 112 0 196 28 290 94 257 185 344 540 189 773
-67 102 -195 194 -331 238 -65 21 -180 32 -252 24z m125 -68 c103 -50 227
-177 283 -291 127 -258 79 -586 -103 -708 -47 -32 -54 -34 -120 -30 -50 2 -85
11 -125 30 -137 67 -269 224 -327 389 -35 99 -44 291 -19 389 31 120 83 202
155 241 59 32 168 23 256 -20z"/>
<path d="M5515 2793 c-171 -552 -179 -582 -173 -588 5 -5 645 -205 657 -205 8
0 51 85 51 101 0 6 -13 0 -30 -14 -36 -31 -108 -42 -170 -28 -25 6 -106 30
-180 54 -109 34 -136 47 -138 62 -1 11 31 129 73 263 41 134 75 245 75 248 0
10 35 2 142 -31 134 -42 176 -75 185 -144 3 -23 9 -39 13 -34 9 9 80 233 75
233 -2 0 -17 -13 -33 -29 -16 -16 -47 -35 -69 -41 -36 -11 -51 -9 -164 25 -68
21 -127 40 -131 44 -7 6 134 476 145 488 7 6 301 -84 339 -103 35 -18 68 -66
75 -109 3 -19 9 -35 13 -35 6 0 33 121 27 126 -3 2 -625 194 -630 194 -2 0
-70 -215 -152 -477z"/>
<path d="M7703 2983 c-52 -4 -53 -5 -53 -36 0 -18 23 -291 50 -607 27 -316 50
-597 50 -625 0 -65 -26 -106 -82 -134 -78 -37 -106 -29 -149 45 -17 30 -40 59
-51 65 -44 24 -118 -42 -103 -92 19 -59 205 -82 302 -37 62 29 153 120 187
186 38 76 59 165 59 262 1 47 -17 286 -38 533 l-39 447 -41 -2 c-22 -1 -64 -3
-92 -5z"/>
</g>
</svg>
